<svg xmlns="http://www.w3.org/2000/svg" enable-background="new 0 0 24 24" viewBox="0 0 24 24" id="grafana"><path d="M6.532,18.396c-0.004-0.004-0.007-0.009-0.01-0.014C6.521,18.381,6.52,18.38,6.519,18.38L6.532,18.396z"></path><linearGradient id="a" x1="12" x2="12" y1="20.594" y2="2.781" gradientUnits="userSpaceOnUse"><stop offset="0" stop-color="#f9c800"></stop><stop offset="1" stop-color="#eb5c10"></stop></linearGradient><path fill="url(#a)" d="M5.586,17.021c0.283,0.51,0.582,0.95,0.917,1.359c0.139,0.179,0.297,0.338,0.456,0.517c-0.657,1.877,0.099,3.453,0.099,3.453c2.009,0.08,3.322-0.878,3.6-1.098l0.597,0.18c0.617,0.159,1.254,0.26,1.87,0.279h0.815c0.935,1.357,2.606,1.537,2.606,1.537c1.173-1.258,1.254-2.476,1.254-2.755v-0.12c0.239-0.18,0.477-0.359,0.717-0.559c0.477-0.419,0.875-0.919,1.233-1.437c0.04-0.04,0.06-0.099,0.099-0.14c1.333,0.08,2.268-0.838,2.268-0.838c-0.219-1.398-1.014-2.076-1.173-2.196l-0.059-0.059c0-0.08,0.02-0.159,0.02-0.26c0.02-0.159,0.02-0.299,0.02-0.459v-0.579c0-0.04,0-0.08-0.02-0.12l-0.04-0.24c-0.02-0.159-0.06-0.299-0.079-0.459c-0.15-0.627-0.38-1.181-0.682-1.685c-0.322-0.515-0.695-0.96-1.123-1.345l-0.005-0.005c-0.41-0.366-0.883-0.673-1.398-0.905l-0.035-0.014c-0.458-0.219-0.989-0.374-1.549-0.438l-0.022-0.002c-0.259-0.04-0.537-0.04-0.796-0.04h-0.398c-0.139,0.02-0.278,0.04-0.398,0.06c-0.537,0.099-1.034,0.299-1.472,0.559c-0.438,0.26-0.816,0.599-1.134,0.978c-0.298,0.346-0.54,0.749-0.707,1.191l-0.009,0.027c-0.159,0.419-0.259,0.878-0.278,1.297v0.479c0,0.06,0,0.099,0.02,0.159c0.066,0.643,0.302,1.221,0.661,1.701c0.238,0.317,0.495,0.555,0.792,0.754c0.299,0.2,0.597,0.339,0.915,0.44c0.318,0.1,0.616,0.14,0.895,0.12h0.417c0.04,0,0.079-0.02,0.099-0.02c0.04,0,0.06-0.02,0.099-0.02c0.06-0.02,0.139-0.04,0.199-0.06c0.12-0.04,0.239-0.099,0.358-0.14c0.12-0.06,0.219-0.12,0.298-0.18c0.02-0.02,0.06-0.04,0.079-0.06c0.054-0.041,0.089-0.107,0.089-0.179c0-0.053-0.019-0.102-0.049-0.141c-0.05-0.05-0.119-0.08-0.195-0.08c-0.037,0-0.073,0.007-0.105,0.021l0.002-0.001c-0.02,0.02-0.04,0.02-0.079,0.04c-0.074,0.038-0.16,0.072-0.249,0.097l-0.009,0.002c-0.099,0.02-0.199,0.06-0.298,0.08c-0.06,0-0.099,0.02-0.159,0.02h-0.337c0,0-0.005,0-0.007,0h-0.073c-0.021,0-0.06,0-0.079-0.02c-0.219-0.04-0.458-0.099-0.676-0.2c-0.219-0.1-0.438-0.24-0.616-0.419c-0.199-0.18-0.358-0.38-0.497-0.619c-0.139-0.239-0.219-0.499-0.259-0.758c-0.02-0.14-0.04-0.279-0.02-0.419v-0.113v-0.007v-0.1c0-0.08,0.02-0.14,0.04-0.219c0.112-0.641,0.418-1.196,0.855-1.616l0.001-0.001c0.119-0.12,0.239-0.219,0.378-0.299c0.139-0.099,0.278-0.18,0.418-0.24c0.139-0.06,0.298-0.12,0.458-0.159c0.159-0.04,0.318-0.08,0.477-0.08c0.079,0,0.159-0.02,0.239-0.02h0.159c0.01,0,0.01,0,0.007,0h0.072c0.558,0.048,1.069,0.212,1.522,0.466c0.632,0.359,1.165,0.895,1.482,1.551c0.159,0.32,0.278,0.679,0.338,1.058c0.02,0.099,0.02,0.18,0.04,0.279v0.519c0,0.099-0.02,0.2-0.02,0.299c-0.02,0.099-0.02,0.2-0.04,0.299l-0.06,0.299c-0.02,0.099-0.12,0.38-0.179,0.579c-0.06,0.2-0.338,0.739-0.577,1.058c-0.483,0.658-1.112,1.18-1.841,1.525l-0.03,0.012c-0.378,0.159-0.756,0.299-1.153,0.359c-0.179,0.038-0.386,0.06-0.597,0.06H13.69h-0.007h-0.02c-0.099,0-0.219,0-0.319-0.02c-0.438-0.04-0.856-0.12-1.273-0.24c-0.418-0.12-0.816-0.279-1.194-0.479c-0.775-0.424-1.429-0.972-1.96-1.625l-0.009-0.012c-0.259-0.339-0.497-0.698-0.696-1.078c-0.199-0.38-0.338-0.779-0.458-1.177c-0.11-0.367-0.181-0.79-0.199-1.228v-0.009v-0.619c0-0.2,0.02-0.419,0.06-0.639c0.02-0.219,0.06-0.419,0.099-0.638c0.039-0.219,0.099-0.419,0.159-0.638c0.06-0.219,0.259-0.818,0.438-1.198C8.669,8.457,9.127,7.779,9.664,7.24c0.139-0.14,0.278-0.26,0.438-0.38c0.06-0.06,0.199-0.18,0.358-0.279c0.159-0.099,0.318-0.2,0.497-0.279c0.079-0.04,0.159-0.08,0.259-0.12c0.04-0.02,0.079-0.04,0.139-0.06c0.04-0.02,0.079-0.04,0.139-0.06c0.179-0.08,0.358-0.14,0.537-0.2c0.04-0.02,0.099-0.02,0.139-0.04c0.04-0.021,0.099-0.02,0.139-0.04c0.04-0.021,0.179-0.04,0.278-0.08c0.04-0.02,0.099-0.02,0.139-0.04c0.04,0,0.099-0.02,0.139-0.02s0.099-0.02,0.139-0.02l0.159-0.04c0.04,0,0.099-0.02,0.139-0.02c0.06,0,0.099-0.02,0.159-0.02c0.04,0,0.12-0.02,0.159-0.02s0.06,0,0.099-0.02h0.139c0.06,0,0.099,0,0.159-0.02h0.079c0,0,0.005,0,0.007,0h0.729c0.358,0.02,0.717,0.06,1.055,0.12c0.707,0.126,1.339,0.346,1.923,0.646c0.582,0.287,1.086,0.621,1.54,1.012c0.02,0.019,0.058,0.039,0.078,0.078c0.02,0.02,0.06,0.04,0.079,0.08c0.06,0.04,0.099,0.099,0.159,0.14c0.06,0.04,0.099,0.099,0.159,0.14c0.04,0.06,0.099,0.099,0.139,0.159c0.517,0.531,0.955,1.144,1.294,1.814l0.02,0.042c0.02,0.02,0.02,0.04,0.04,0.08c0.02,0.02,0.02,0.04,0.04,0.08c0.021,0.039,0.04,0.099,0.079,0.14c0.02,0.04,0.04,0.099,0.06,0.14c0.02,0.04,0.04,0.099,0.06,0.14c0.079,0.18,0.139,0.359,0.199,0.539c0.099,0.279,0.159,0.519,0.219,0.719c0.022,0.08,0.094,0.138,0.179,0.14c0.099,0,0.159-0.08,0.159-0.18c-0.02-0.24-0.02-0.499-0.04-0.799h0.004c-0.04-0.38-0.099-0.818-0.219-1.297c-0.12-0.479-0.318-0.998-0.577-1.557c-0.278-0.539-0.616-1.118-1.074-1.657c-0.179-0.219-0.378-0.419-0.577-0.638c0.318-1.258-0.378-2.356-0.378-2.356c-1.213-0.08-1.969,0.38-2.247,0.579c-0.04-0.02-0.099-0.04-0.139-0.06c-0.199-0.08-0.418-0.159-0.636-0.24c-0.219-0.06-0.438-0.14-0.657-0.18c-0.219-0.06-0.458-0.099-0.696-0.14c-0.04,0-0.079-0.02-0.12-0.02c-0.517-1.677-2.029-2.395-2.029-2.395c-1.731,1.118-2.069,2.615-2.069,2.615s0,0.04-0.02,0.08c-0.099,0.02-0.179,0.06-0.278,0.08c-0.12,0.04-0.259,0.08-0.378,0.14c-0.12,0.06-0.259,0.099-0.378,0.159c-0.259,0.12-0.497,0.24-0.756,0.38c-0.274,0.155-0.502,0.3-0.72,0.456l0.024-0.017c-0.04-0.02-0.06-0.04-0.06-0.04c-2.328-0.898-4.396,0.18-4.396,0.18C3.716,7.278,4.831,8.835,5.049,9.115C4.989,9.274,4.95,9.414,4.89,9.574c-0.162,0.495-0.294,1.082-0.373,1.686l-0.006,0.051c-0.02,0.08-0.02,0.18-0.04,0.26c-2.148,1.058-2.785,3.254-2.785,3.254C3.478,16.901,5.586,17.021,5.586,17.021z"></path><polygon points="11.462 15.05 11.459 15.046 11.455 15.042"></polygon><path d="M20.161,11.326c0.003,0.006,0.006,0.012,0.009,0.018c0.002,0.003,0.004,0.005,0.006,0.008L20.161,11.326z"></path><path d="M16.52,24c-0.026,0-0.054-0.001-0.081-0.004c-0.075-0.008-1.75-0.204-2.879-1.533h-0.44c-0.675-0.021-1.356-0.124-2.049-0.304l-0.268-0.081c-0.642,0.422-1.944,1.087-3.745,1.022c-0.278-0.011-0.527-0.176-0.646-0.427c-0.034-0.071-0.764-1.641-0.261-3.587c-0.072-0.081-0.142-0.163-0.208-0.249c-0.281-0.346-0.542-0.719-0.786-1.126c-0.779-0.147-2.485-0.659-3.976-2.399c-0.164-0.191-0.222-0.453-0.151-0.695c0.028-0.097,0.68-2.286,2.802-3.527c0.09-0.652,0.222-1.233,0.39-1.748l0.038-0.112c-0.439-0.696-1.222-2.271-1.062-4.5c0.019-0.259,0.17-0.49,0.399-0.611C3.688,4.07,5.811,2.982,8.287,3.796c0.127-0.081,0.262-0.162,0.409-0.246C8.978,3.397,9.228,3.271,9.5,3.144c0.059-0.031,0.147-0.066,0.237-0.101c0.04-0.016,0.082-0.03,0.12-0.049c0.119-0.061,0.257-0.109,0.389-0.152c0.222-0.589,0.822-1.782,2.267-2.72c0.218-0.144,0.496-0.16,0.731-0.048c0.067,0.032,1.543,0.754,2.248,2.407c0.162,0.03,0.312,0.062,0.454,0.101c0.111,0.018,0.284,0.069,0.457,0.122l0.356,0.115c0.115,0.042,0.229,0.085,0.341,0.127c0.501-0.274,1.275-0.559,2.354-0.488c0.239,0.016,0.456,0.146,0.585,0.349c0.031,0.051,0.716,1.156,0.546,2.522c0.121,0.131,0.239,0.261,0.351,0.398c0.538,0.637,0.917,1.327,1.153,1.789c0.307,0.664,0.51,1.216,0.635,1.718c0.135,0.54,0.196,1.031,0.235,1.4c0.004,0.036,0.005,0.072,0.003,0.107c0.008,0.124,0.012,0.24,0.017,0.352c0.005,0.125,0.009,0.244,0.018,0.358c0.003,0.582-0.396,0.99-0.904,0.99c-0.43-0.007-0.787-0.283-0.9-0.686l-0.055-0.19c-0.04-0.143-0.085-0.304-0.147-0.483c-0.058-0.172-0.108-0.329-0.178-0.487l0.58-0.388c-0.001-0.004-0.001-0.008-0.002-0.012l-0.366,0.162l-0.184,0.177c-0.022-0.023-0.042-0.046-0.061-0.069l-0.019,0.009c-0.012-0.022-0.026-0.057-0.041-0.092c-0.042-0.067-0.069-0.126-0.085-0.163c-0.003-0.005-0.011-0.022-0.02-0.042c-0.007-0.012-0.014-0.024-0.021-0.037c-0.005-0.011-0.014-0.029-0.022-0.048c-0.012-0.021-0.023-0.042-0.033-0.063c-0.31-0.619-0.698-1.167-1.163-1.649c-0.031-0.032-0.06-0.067-0.085-0.105c-0.013-0.009-0.027-0.022-0.043-0.039c-0.028-0.025-0.056-0.051-0.082-0.078c-0.039-0.026-0.1-0.081-0.158-0.139c-0.061-0.041-0.104-0.083-0.141-0.133c-0.006-0.005-0.011-0.01-0.016-0.015c-0.014-0.014-0.027-0.029-0.04-0.043c-0.009-0.008-0.017-0.015-0.024-0.022c-0.387-0.334-0.836-0.631-1.346-0.883c-0.548-0.284-1.104-0.471-1.71-0.58C15.425,6.287,15.1,6.25,14.774,6.232l-0.678,0.001c-0.104,0.02-0.188,0.02-0.249,0.02h-0.064c-0.064,0.012-0.126,0.02-0.172,0.02c-0.031,0.012-0.107,0.02-0.158,0.02c-0.001,0.008-0.054,0.017-0.123,0.02l-0.147,0.037c-0.06,0.015-0.121,0.023-0.184,0.023c0.002,0.008-0.047,0.016-0.099,0.019c-0.033,0.01-0.064,0.019-0.09,0.024c-0.087,0.032-0.16,0.051-0.225,0.066c-0.036,0.007,0.012-0.005,0.07-0.035c-0.06,0.031-0.185,0.072-0.258,0.088c-0.055,0.019-0.113,0.036-0.15,0.043c0.005-0.001,0.052-0.012,0.111-0.041c-0.244,0.089-0.4,0.14-0.556,0.21l-0.436-0.629l0.336,0.67c-0.033,0.017-0.077,0.036-0.112,0.047c-0.165,0.072-0.228,0.104-0.29,0.136c-0.171,0.078-0.296,0.159-0.421,0.237c-0.113,0.071-0.208,0.153-0.235,0.181c-0.025,0.025-0.053,0.049-0.082,0.071c-0.129,0.097-0.241,0.195-0.354,0.308C9.746,8.236,9.343,8.831,9.012,9.535c-0.154,0.33-0.338,0.882-0.389,1.073l-0.032,0.118c-0.043,0.154-0.084,0.301-0.112,0.458L8.46,11.289c-0.029,0.157-0.057,0.307-0.071,0.468c-0.041,0.242-0.057,0.415-0.057,0.572v0.619c0.014,0.344,0.072,0.705,0.167,1.023c0.096,0.319,0.218,0.694,0.401,1.045c0.164,0.316,0.368,0.634,0.624,0.972c0.467,0.578,1.048,1.062,1.721,1.432c0.318,0.169,0.67,0.311,1.034,0.417c0.374,0.107,0.742,0.177,1.126,0.213c0.13,0.019,0.194,0.015,0.247,0.016h0.315c0.152,0,0.307-0.015,0.436-0.043c0.374-0.058,0.704-0.186,1.012-0.316c0.606-0.287,1.142-0.733,1.548-1.289c0.198-0.268,0.425-0.721,0.461-0.833l0.087-0.274c0.031-0.098,0.062-0.19,0.076-0.243l0.058-0.291c0.012-0.104,0.019-0.169,0.026-0.222c0.002-0.051,0.007-0.102,0.012-0.153l0.005-0.537c-0.006-0.04-0.01-0.079-0.015-0.118c-0.001-0.009-0.013-0.095-0.015-0.104c-0.046-0.291-0.136-0.574-0.268-0.842c-0.241-0.502-0.656-0.937-1.173-1.231c-0.36-0.204-0.76-0.328-1.184-0.369c-0.013,0-0.024,0.001-0.036,0.001H14.84c-0.188,0.027-0.327,0.026-0.525,0.076c-0.123,0.031-0.241,0.077-0.346,0.122c-0.084,0.037-0.177,0.091-0.273,0.161c-0.131,0.08-0.198,0.135-0.282,0.219c-0.343,0.333-0.562,0.75-0.643,1.216c-0.004,0.021-0.018,0.076-0.023,0.098l-0.006,0.213c0,0.035-0.002,0.069-0.007,0.104c-0.006,0.036,0.009,0.137,0.02,0.211c0.027,0.181,0.083,0.348,0.163,0.486c0.102,0.175,0.212,0.314,0.351,0.439c0.128,0.128,0.264,0.22,0.423,0.294c0.124,0.057,0.286,0.104,0.494,0.143c0.011,0.002,0.021,0.004,0.032,0.007h0.324c0.001-0.003,0.013-0.007,0.03-0.01c0.137-0.041,0.208-0.061,0.278-0.075c-0.006,0.001,0.022-0.012,0.053-0.027c0.011-0.006,0.029-0.015,0.049-0.023c0.014-0.008,0.028-0.016,0.043-0.023c0.021-0.01,0.042-0.02,0.063-0.028c0.375-0.146,0.81-0.057,1.096,0.223c0.198,0.241,0.273,0.456,0.273,0.676c0,0.302-0.144,0.592-0.383,0.775v0c-0.028,0.022-0.056,0.043-0.075,0.056c-0.115,0.089-0.251,0.174-0.415,0.257c-0.032,0.017-0.065,0.03-0.1,0.042l-0.129,0.051c-0.075,0.031-0.151,0.062-0.227,0.088c-0.01,0.003-0.113,0.035-0.124,0.038c-0.034,0.012-0.084,0.025-0.137,0.037c-0.038,0.012-0.087,0.026-0.146,0.035c-0.055,0.014-0.134,0.029-0.229,0.029h-0.414c-0.319,0.022-0.711-0.027-1.116-0.155c-0.393-0.124-0.754-0.298-1.102-0.532c-0.375-0.252-0.692-0.556-0.97-0.928c-0.434-0.583-0.708-1.276-0.795-2.009c-0.03-0.128-0.03-0.229-0.03-0.299v-0.479c0.023-0.525,0.139-1.068,0.325-1.562c0.204-0.545,0.485-1.021,0.845-1.44c0.386-0.462,0.829-0.846,1.312-1.134c0.538-0.321,1.114-0.541,1.71-0.652l0.427-0.065c0.035-0.005,0.07-0.007,0.105-0.007h0.396c0.278,0,0.593,0,0.908,0.05c0.614,0.069,1.23,0.244,1.771,0.504c0.598,0.269,1.129,0.615,1.599,1.036c0.484,0.438,0.905,0.945,1.258,1.511c0.359,0.604,0.609,1.225,0.771,1.909c0.022,0.144,0.034,0.201,0.046,0.257c0.019,0.093,0.036,0.185,0.048,0.284l0.025,0.146c0.039,0.135,0.039,0.249,0.039,0.304v0.579c0,0.145-0.001,0.275-0.011,0.412c0.361,0.362,0.986,1.152,1.188,2.447c0.037,0.238-0.043,0.48-0.214,0.649c-0.044,0.043-0.988,0.959-2.391,1.052c-0.41,0.576-0.801,1.022-1.22,1.392c-0.161,0.135-0.316,0.259-0.47,0.377c-0.052,0.586-0.304,1.785-1.435,3.004C16.927,23.914,16.728,24,16.52,24z M13.93,20.963c0.248,0,0.479,0.122,0.619,0.327c0.48,0.703,1.24,1.009,1.688,1.135c0.754-0.973,0.778-1.827,0.778-1.93v-0.12c0-0.235,0.11-0.457,0.298-0.598c0.228-0.172,0.454-0.343,0.681-0.534c0.354-0.313,0.705-0.726,1.091-1.288c0.01-0.016,0.021-0.03,0.033-0.045c0.031-0.052,0.077-0.123,0.146-0.194c0.152-0.156,0.365-0.241,0.582-0.225c0.592,0.042,1.079-0.2,1.378-0.392c-0.252-0.88-0.764-1.278-0.788-1.297c-0.03-0.022-0.058-0.047-0.084-0.074c-0.137-0.14-0.271-0.387-0.271-0.583c0-0.065,0.006-0.131,0.014-0.201c0-0.029,0.008-0.117,0.011-0.146c0.016-0.129,0.014-0.242,0.014-0.373v-0.533c-0.003-0.014-0.006-0.028-0.009-0.042l-0.04-0.24c-0.012-0.093-0.023-0.149-0.035-0.206c-0.019-0.093-0.036-0.187-0.048-0.287c-0.112-0.452-0.306-0.934-0.578-1.392c-0.275-0.442-0.597-0.83-0.976-1.172c-0.357-0.321-0.761-0.583-1.199-0.781c-0.442-0.21-0.892-0.338-1.351-0.39c-0.273-0.041-0.512-0.039-0.729-0.038l-0.668,0.05c-0.406,0.076-0.815,0.233-1.202,0.463c-0.337,0.201-0.651,0.476-0.936,0.815c-0.069,0.082-0.135,0.166-0.196,0.253c0.065-0.074,0.134-0.146,0.205-0.214c0.169-0.17,0.339-0.304,0.523-0.411c0.119-0.091,0.306-0.198,0.49-0.278c0.177-0.076,0.375-0.15,0.573-0.199c0.165-0.042,0.397-0.102,0.656-0.102c0.096-0.013,0.166-0.02,0.237-0.02h0.158c0.001,0,0.003,0,0.009,0c0.037,0.001,0.117,0.001,0.136,0.003c0.648,0.057,1.259,0.246,1.816,0.561c0.781,0.446,1.412,1.113,1.779,1.878c0.196,0.396,0.333,0.825,0.402,1.267c0.009,0.044,0.017,0.11,0.024,0.175c0.009,0.047,0.023,0.172,0.023,0.221v0.519c0,0.074-0.006,0.148-0.014,0.223c0,0.046-0.01,0.169-0.019,0.215c-0.017,0.156-0.025,0.234-0.042,0.312l-0.059,0.294c-0.015,0.075-0.063,0.235-0.119,0.406l-0.076,0.241c-0.095,0.316-0.423,0.932-0.689,1.291c-0.55,0.752-1.28,1.36-2.11,1.755c-0.438,0.187-0.893,0.361-1.388,0.436c-0.187,0.042-0.446,0.068-0.705,0.068H13.68c-0.17,0-0.343-0.005-0.488-0.034c-0.403-0.034-0.862-0.121-1.329-0.255c-0.464-0.134-0.911-0.315-1.33-0.538c-0.854-0.469-1.585-1.079-2.18-1.816c-0.331-0.437-0.579-0.825-0.782-1.215c-0.243-0.465-0.399-0.944-0.509-1.309c-0.13-0.437-0.209-0.925-0.229-1.413l-0.001-0.658c0-0.249,0.024-0.516,0.071-0.773c0.01-0.14,0.044-0.332,0.08-0.535l0.019-0.1c0.036-0.205,0.088-0.395,0.143-0.595l0.03-0.109c0.062-0.23,0.272-0.878,0.479-1.319c0.404-0.86,0.906-1.595,1.491-2.186c0.154-0.155,0.307-0.289,0.479-0.421c0.104-0.099,0.266-0.231,0.445-0.345c0.197-0.124,0.381-0.236,0.586-0.328c0.064-0.034,0.16-0.081,0.279-0.13c0.024-0.013,0.069-0.035,0.132-0.058c0.059-0.028,0.118-0.055,0.197-0.081c0.127-0.061,0.326-0.13,0.526-0.197c0.026-0.009,0.106-0.032,0.145-0.041c0.04-0.014,0.083-0.026,0.118-0.036c0.064-0.024,0.127-0.039,0.184-0.053c0.106-0.04,0.192-0.06,0.244-0.07c0.077-0.027,0.159-0.041,0.242-0.041c0.033-0.007,0.062-0.013,0.094-0.017l0.157-0.04c0.06-0.015,0.121-0.023,0.184-0.023c-0.002-0.01,0.075-0.02,0.138-0.02c0.001-0.009,0.072-0.02,0.158-0.02c0.014-0.005,0.034-0.009,0.058-0.013c0.064-0.018,0.131-0.026,0.198-0.026h0.125c0.056-0.013,0.114-0.02,0.172-0.02h0.811c0.437,0.023,0.819,0.067,1.18,0.132C16.754,5,17.449,5.235,18.12,5.583c0.606,0.3,1.153,0.661,1.659,1.096c-0.118-0.144-0.235-0.27-0.355-0.399l-0.199-0.217c-0.168-0.186-0.231-0.443-0.171-0.686c0.142-0.561,0.007-1.094-0.12-1.426c-0.667,0.041-1.104,0.282-1.321,0.44c-0.228,0.164-0.526,0.189-0.775,0.063l-0.139-0.061c-0.107-0.041-0.283-0.105-0.46-0.171l-0.274-0.086c-0.117-0.036-0.235-0.074-0.354-0.096c-0.244-0.064-0.443-0.097-0.644-0.131c-0.012-0.002-0.068-0.012-0.109-0.02c-0.296-0.031-0.548-0.236-0.637-0.525c-0.268-0.87-0.878-1.431-1.27-1.715c-1.102,0.875-1.353,1.868-1.355,1.879h-0.001c-0.019,0.092-0.048,0.188-0.079,0.251c-0.104,0.206-0.296,0.354-0.521,0.399c-0.121,0.041-0.195,0.063-0.276,0.08c-0.056,0.023-0.125,0.043-0.186,0.073c-0.084,0.042-0.169,0.076-0.255,0.109c-0.041,0.016-0.083,0.031-0.121,0.05C9.89,4.617,9.667,4.73,9.425,4.862c-0.223,0.126-0.417,0.25-0.604,0.382c-0.005,0.004-0.01,0.007-0.015,0.011C8.804,5.257,8.8,5.26,8.797,5.262C8.794,5.264,8.791,5.266,8.788,5.268l0,0C8.521,5.445,8.171,5.436,7.919,5.256C6.542,4.767,5.283,5.073,4.675,5.289C4.664,7.236,5.504,8.423,5.684,8.655C5.843,8.86,5.885,9.134,5.793,9.377L5.725,9.579C5.697,9.662,5.67,9.746,5.637,9.835c-0.14,0.431-0.261,0.982-0.33,1.521c-0.004,0.028-0.014,0.106-0.021,0.133c-0.012,0.113-0.023,0.195-0.042,0.268c-0.055,0.211-0.198,0.388-0.394,0.485c-1.307,0.647-1.969,1.818-2.234,2.417c1.475,1.505,3.035,1.612,3.052,1.613c0.258,0.015,0.489,0.161,0.613,0.386c0.253,0.458,0.526,0.866,0.838,1.249c0.094,0.122,0.184,0.218,0.275,0.318l0.158,0.175c0.179,0.203,0.235,0.487,0.146,0.743c-0.353,1.014-0.215,1.936-0.077,2.453c1.396-0.082,2.312-0.72,2.581-0.932c0.192-0.153,0.448-0.2,0.683-0.129l0.593,0.18c0.556,0.144,1.126,0.23,1.666,0.248L13.93,20.963z M22.632,11.333l0.001,0.002C22.633,11.335,22.632,11.334,22.632,11.333L22.632,11.333z M20.73,10.323C20.73,10.323,20.731,10.323,20.73,10.323C20.731,10.323,20.73,10.323,20.73,10.323z M20.592,10.122c0.002,0.004,0.004,0.008,0.006,0.013C20.596,10.13,20.595,10.126,20.592,10.122C20.593,10.122,20.593,10.122,20.592,10.122z M12.511,6.489c-0.024,0.013-0.062,0.027-0.102,0.042C12.432,6.523,12.469,6.51,12.511,6.489z M12.873,6.392c-0.02,0.007-0.039,0.015-0.057,0.021c0.014-0.004,0.035-0.011,0.061-0.021C12.876,6.392,12.874,6.392,12.873,6.392z M11.928,5.113c-0.022,0.007-0.062,0.021-0.107,0.044C11.847,5.143,11.886,5.127,11.928,5.113z M13.768,4.772C13.768,4.772,13.768,4.772,13.768,4.772S13.768,4.772,13.768,4.772z"></path><path d="M11.459,15.798c-0.19,0-0.38-0.072-0.524-0.217c-0.03-0.03-0.058-0.062-0.082-0.098l0,0l-0.006-0.008c-0.004-0.005-0.008-0.011-0.012-0.017c-0.228-0.341-0.139-0.802,0.2-1.035c0.317-0.22,0.744-0.158,0.991,0.128c0.021,0.025,0.042,0.051,0.061,0.079c0.033,0.05,0.062,0.106,0.082,0.164l-0.002,0c0.102,0.288,0.021,0.62-0.222,0.825C11.804,15.739,11.631,15.798,11.459,15.798z"></path></svg>